<svg width="328" height="12" viewBox="0 0 328 12" fill="none" xmlns="http://www.w3.org/2000/svg">
<path d="M117.325 1.44418C150.654 1.44167 183.986 1.63352 217.31 1.36794C236.562 1.21463 255.818 0.836792 275.065 1.07472C291.278 1.27495 307.488 1.38218 323.701 1.4291C324.701 1.43161 325.72 1.51958 326.694 1.66452C327.479 1.7818 328.02 2.17221 327.998 2.71174C327.977 3.24875 327.399 3.65423 326.627 3.73634C325.266 3.88211 323.87 3.95583 322.488 3.95667C291.948 3.97259 261.406 3.862 230.867 4.02704C215.924 4.10747 200.971 4.65035 186.036 4.32529C160.825 3.77571 135.607 3.78241 110.41 4.09909C85.8282 4.40739 61.255 4.30938 36.6783 4.32194C25.788 4.32781 14.8978 4.08485 4.00759 3.94746C3.25103 3.93824 2.48386 3.90724 1.74499 3.81341C0.828624 3.69696 -0.0116709 3.39871 0.000122684 2.73519C0.0119163 2.07084 0.898796 1.75164 1.78627 1.67541C3.40907 1.53634 5.05664 1.45507 6.69418 1.45507C43.571 1.44334 80.4485 1.44586 117.325 1.44418Z" fill="#F0E0FF"/>
<path d="M141.462 7.94324C181.77 7.94324 222.08 8.26913 262.386 7.80501C282.399 7.57462 302.403 8.10577 322.411 7.93989C323.172 7.93319 323.941 7.85025 324.69 7.9667C325.722 8.12588 327.428 7.48665 327.336 9.55763C327.258 11.3295 325.608 11.0891 324.517 11.1167C316.048 11.3287 307.587 11.4686 299.106 11.3614C263.746 10.9157 228.371 10.5898 193.018 11.3982C165.769 12.0215 138.528 11.6387 111.285 11.9863C96.8445 12.1707 82.4061 10.3426 67.9707 11.3429C47.5684 12.7563 27.1866 10.578 6.79545 11.2215C6.41569 11.2332 6.02473 11.2927 5.65677 11.2072C4.27751 10.888 1.85333 12.009 1.87515 9.57104C1.89696 7.19008 4.31584 8.02785 5.70807 8.02702C50.9596 7.97843 96.2112 7.9868 141.463 7.9868C141.463 7.97256 141.463 7.95748 141.463 7.94324H141.462Z" fill="#F0E0FF"/>
</svg>
