<svg width="328" height="11" viewBox="0 0 328 11" fill="none" xmlns="http://www.w3.org/2000/svg">
<g clip-path="url(#clip0_2900_7262)">
<g clip-path="url(#clip1_2900_7262)">
<path d="M1.078 8.074C0.352 7.392 0 6.534 0 5.5C0 4.466 0.352 3.608 1.078 2.926C1.804 2.244 2.706 1.892 3.828 1.892C4.906 1.892 5.80799 2.244 6.51199 2.926C7.21599 3.608 7.56799 4.466 7.56799 5.5C7.56799 6.534 7.21599 7.392 6.51199 8.074C5.80799 8.756 4.906 9.108 3.828 9.108C2.706 9.108 1.804 8.756 1.078 8.074Z" fill="#F0E0FF"/>
<path d="M18.646 8.074C17.92 7.392 17.568 6.534 17.568 5.5C17.568 4.466 17.92 3.608 18.646 2.926C19.372 2.244 20.274 1.892 21.396 1.892C22.474 1.892 23.376 2.244 24.08 2.926C24.784 3.608 25.136 4.466 25.136 5.5C25.136 6.534 24.784 7.392 24.08 8.074C23.376 8.756 22.474 9.108 21.396 9.108C20.274 9.108 19.372 8.756 18.646 8.074Z" fill="#F0E0FF"/>
<path d="M36.214 8.074C35.488 7.392 35.136 6.534 35.136 5.5C35.136 4.466 35.488 3.608 36.214 2.926C36.94 2.244 37.842 1.892 38.964 1.892C40.042 1.892 40.944 2.244 41.648 2.926C42.352 3.608 42.704 4.466 42.704 5.5C42.704 6.534 42.352 7.392 41.648 8.074C40.944 8.756 40.042 9.108 38.964 9.108C37.842 9.108 36.94 8.756 36.214 8.074Z" fill="#F0E0FF"/>
<path d="M53.782 8.074C53.056 7.392 52.704 6.534 52.704 5.5C52.704 4.466 53.056 3.608 53.782 2.926C54.508 2.244 55.41 1.892 56.532 1.892C57.61 1.892 58.512 2.244 59.216 2.926C59.92 3.608 60.272 4.466 60.272 5.5C60.272 6.534 59.92 7.392 59.216 8.074C58.512 8.756 57.61 9.108 56.532 9.108C55.41 9.108 54.508 8.756 53.782 8.074Z" fill="#F0E0FF"/>
<path d="M71.35 8.074C70.624 7.392 70.272 6.534 70.272 5.5C70.272 4.466 70.624 3.608 71.35 2.926C72.076 2.244 72.978 1.892 74.1 1.892C75.178 1.892 76.08 2.244 76.784 2.926C77.488 3.608 77.84 4.466 77.84 5.5C77.84 6.534 77.488 7.392 76.784 8.074C76.08 8.756 75.178 9.108 74.1 9.108C72.978 9.108 72.076 8.756 71.35 8.074Z" fill="#F0E0FF"/>
<path d="M88.918 8.074C88.192 7.392 87.84 6.534 87.84 5.5C87.84 4.466 88.192 3.608 88.918 2.926C89.644 2.244 90.546 1.892 91.668 1.892C92.746 1.892 93.648 2.244 94.352 2.926C95.056 3.608 95.408 4.466 95.408 5.5C95.408 6.534 95.056 7.392 94.352 8.074C93.648 8.756 92.746 9.108 91.668 9.108C90.546 9.108 89.644 8.756 88.918 8.074Z" fill="#F0E0FF"/>
<path d="M106.486 8.074C105.76 7.392 105.408 6.534 105.408 5.5C105.408 4.466 105.76 3.608 106.486 2.926C107.212 2.244 108.114 1.892 109.236 1.892C110.314 1.892 111.216 2.244 111.92 2.926C112.624 3.608 112.976 4.466 112.976 5.5C112.976 6.534 112.624 7.392 111.92 8.074C111.216 8.756 110.314 9.108 109.236 9.108C108.114 9.108 107.212 8.756 106.486 8.074Z" fill="#F0E0FF"/>
<path d="M124.054 8.074C123.328 7.392 122.976 6.534 122.976 5.5C122.976 4.466 123.328 3.608 124.054 2.926C124.78 2.244 125.682 1.892 126.804 1.892C127.882 1.892 128.784 2.244 129.488 2.926C130.192 3.608 130.544 4.466 130.544 5.5C130.544 6.534 130.192 7.392 129.488 8.074C128.784 8.756 127.882 9.108 126.804 9.108C125.682 9.108 124.78 8.756 124.054 8.074Z" fill="#F0E0FF"/>
<path d="M141.622 8.074C140.896 7.392 140.544 6.534 140.544 5.5C140.544 4.466 140.896 3.608 141.622 2.926C142.348 2.244 143.25 1.892 144.372 1.892C145.45 1.892 146.352 2.244 147.056 2.926C147.76 3.608 148.112 4.466 148.112 5.5C148.112 6.534 147.76 7.392 147.056 8.074C146.352 8.756 145.45 9.108 144.372 9.108C143.25 9.108 142.348 8.756 141.622 8.074Z" fill="#F0E0FF"/>
<path d="M159.19 8.074C158.464 7.392 158.112 6.534 158.112 5.5C158.112 4.466 158.464 3.608 159.19 2.926C159.916 2.244 160.818 1.892 161.94 1.892C163.018 1.892 163.92 2.244 164.624 2.926C165.328 3.608 165.68 4.466 165.68 5.5C165.68 6.534 165.328 7.392 164.624 8.074C163.92 8.756 163.018 9.108 161.94 9.108C160.818 9.108 159.916 8.756 159.19 8.074Z" fill="#F0E0FF"/>
<path d="M176.758 8.074C176.032 7.392 175.68 6.534 175.68 5.5C175.68 4.466 176.032 3.608 176.758 2.926C177.484 2.244 178.386 1.892 179.508 1.892C180.586 1.892 181.488 2.244 182.192 2.926C182.896 3.608 183.248 4.466 183.248 5.5C183.248 6.534 182.896 7.392 182.192 8.074C181.488 8.756 180.586 9.108 179.508 9.108C178.386 9.108 177.484 8.756 176.758 8.074Z" fill="#F0E0FF"/>
<path d="M194.326 8.074C193.6 7.392 193.248 6.534 193.248 5.5C193.248 4.466 193.6 3.608 194.326 2.926C195.052 2.244 195.954 1.892 197.076 1.892C198.154 1.892 199.056 2.244 199.76 2.926C200.464 3.608 200.816 4.466 200.816 5.5C200.816 6.534 200.464 7.392 199.76 8.074C199.056 8.756 198.154 9.108 197.076 9.108C195.954 9.108 195.052 8.756 194.326 8.074Z" fill="#F0E0FF"/>
<path d="M211.894 8.074C211.168 7.392 210.816 6.534 210.816 5.5C210.816 4.466 211.168 3.608 211.894 2.926C212.62 2.244 213.522 1.892 214.644 1.892C215.722 1.892 216.624 2.244 217.328 2.926C218.032 3.608 218.384 4.466 218.384 5.5C218.384 6.534 218.032 7.392 217.328 8.074C216.624 8.756 215.722 9.108 214.644 9.108C213.522 9.108 212.62 8.756 211.894 8.074Z" fill="#F0E0FF"/>
<path d="M229.462 8.074C228.736 7.392 228.384 6.534 228.384 5.5C228.384 4.466 228.736 3.608 229.462 2.926C230.188 2.244 231.09 1.892 232.212 1.892C233.29 1.892 234.192 2.244 234.896 2.926C235.6 3.608 235.952 4.466 235.952 5.5C235.952 6.534 235.6 7.392 234.896 8.074C234.192 8.756 233.29 9.108 232.212 9.108C231.09 9.108 230.188 8.756 229.462 8.074Z" fill="#F0E0FF"/>
<path d="M247.03 8.074C246.304 7.392 245.952 6.534 245.952 5.5C245.952 4.466 246.304 3.608 247.03 2.926C247.756 2.244 248.658 1.892 249.78 1.892C250.858 1.892 251.76 2.244 252.464 2.926C253.168 3.608 253.52 4.466 253.52 5.5C253.52 6.534 253.168 7.392 252.464 8.074C251.76 8.756 250.858 9.108 249.78 9.108C248.658 9.108 247.756 8.756 247.03 8.074Z" fill="#F0E0FF"/>
<path d="M264.598 8.074C263.872 7.392 263.52 6.534 263.52 5.5C263.52 4.466 263.872 3.608 264.598 2.926C265.324 2.244 266.226 1.892 267.348 1.892C268.426 1.892 269.328 2.244 270.032 2.926C270.736 3.608 271.088 4.466 271.088 5.5C271.088 6.534 270.736 7.392 270.032 8.074C269.328 8.756 268.426 9.108 267.348 9.108C266.226 9.108 265.324 8.756 264.598 8.074Z" fill="#F0E0FF"/>
<path d="M282.166 8.074C281.44 7.392 281.088 6.534 281.088 5.5C281.088 4.466 281.44 3.608 282.166 2.926C282.892 2.244 283.794 1.892 284.916 1.892C285.994 1.892 286.896 2.244 287.6 2.926C288.304 3.608 288.656 4.466 288.656 5.5C288.656 6.534 288.304 7.392 287.6 8.074C286.896 8.756 285.994 9.108 284.916 9.108C283.794 9.108 282.892 8.756 282.166 8.074Z" fill="#F0E0FF"/>
<path d="M299.734 8.074C299.008 7.392 298.656 6.534 298.656 5.5C298.656 4.466 299.008 3.608 299.734 2.926C300.46 2.244 301.362 1.892 302.484 1.892C303.562 1.892 304.464 2.244 305.168 2.926C305.872 3.608 306.224 4.466 306.224 5.5C306.224 6.534 305.872 7.392 305.168 8.074C304.464 8.756 303.562 9.108 302.484 9.108C301.362 9.108 300.46 8.756 299.734 8.074Z" fill="#F0E0FF"/>
<path d="M317.302 8.074C316.576 7.392 316.224 6.534 316.224 5.5C316.224 4.466 316.576 3.608 317.302 2.926C318.028 2.244 318.93 1.892 320.052 1.892C321.13 1.892 322.032 2.244 322.736 2.926C323.44 3.608 323.792 4.466 323.792 5.5C323.792 6.534 323.44 7.392 322.736 8.074C322.032 8.756 321.13 9.108 320.052 9.108C318.93 9.108 318.028 8.756 317.302 8.074Z" fill="#F0E0FF"/>
</g>
</g>
<defs>
<clipPath id="clip0_2900_7262">
<rect width="328" height="11" fill="white"/>
</clipPath>
<clipPath id="clip1_2900_7262">
<rect width="868.4" height="7.216" fill="white" transform="translate(0 1.892)"/>
</clipPath>
</defs>
</svg>
