<svg width="328" height="11" viewBox="0 0 328 11" fill="none" xmlns="http://www.w3.org/2000/svg">
<g clip-path="url(#clip0_2900_7257)">
<path d="M312.131 1.40617L307.661 3.50354C305.805 4.37374 303.811 4.79673 301.803 4.74566C299.794 4.69799 297.815 4.17694 295.992 3.21556L293.191 1.73405C291.134 0.649982 288.902 0.0613062 286.635 0.00517173C284.368 -0.0509627 282.115 0.426663 280.018 1.40791L275.549 3.50354C273.703 4.36888 271.719 4.79178 269.723 4.74566H269.689L269.476 4.73525C267.541 4.65707 265.639 4.14037 263.883 3.21556L261.078 1.73405C259.022 0.64988 256.789 0.0611472 254.522 0.00501238C252.255 -0.0511224 250.002 0.42656 247.906 1.40791L243.436 3.50354C241.58 4.37278 239.585 4.79598 237.577 4.74641C235.57 4.69685 233.593 4.17559 231.772 3.21556L228.966 1.73405C226.909 0.64988 224.677 0.0611472 222.41 0.00501238C220.142 -0.0511224 217.89 0.42656 215.793 1.40791L211.324 3.50354C209.467 4.37278 207.472 4.79598 205.465 4.74641C203.457 4.69685 201.48 4.17559 199.659 3.21556L196.853 1.73405C194.796 0.64988 192.564 0.0611472 190.297 0.00501238C188.03 -0.0511224 185.777 0.42656 183.681 1.40791L179.211 3.50354C177.355 4.37278 175.36 4.79598 173.352 4.74641C171.344 4.69685 169.368 4.17559 167.546 3.21556L164.74 1.73405C164.024 1.35689 163.285 1.03917 162.528 0.78338C158.92 -0.446071 155.05 -0.226724 151.568 1.40444L147.098 3.50354C145.243 4.37374 143.248 4.79673 141.24 4.74566C139.231 4.69799 137.252 4.17694 135.429 3.21556L132.628 1.73405C130.571 0.649982 128.339 0.0613062 126.072 0.00517173C123.805 -0.0509627 121.552 0.426663 119.456 1.40791L114.986 3.50354C113.14 4.36888 111.156 4.79178 109.16 4.74566H109.126L108.913 4.73525C106.978 4.65707 105.076 4.14037 103.32 3.21556L100.515 1.73405C98.4587 0.64988 96.2264 0.0611472 93.9593 0.00501238C91.6921 -0.0511224 89.4393 0.42656 87.343 1.40791L82.8732 3.50354C81.017 4.37278 79.0221 4.79598 77.0144 4.74641C75.0067 4.69685 73.0299 4.17559 71.2087 3.21556L68.4027 1.73405C66.3462 0.64988 64.1139 0.0611472 61.8467 0.00501238C59.5795 -0.0511224 57.3267 0.42656 55.2304 1.40791L50.7607 3.50354C48.9044 4.37278 46.9095 4.79598 44.9018 4.74641C42.8941 4.69685 40.9173 4.17559 39.0962 3.21556L36.2901 1.73405C34.2336 0.64988 32.0013 0.0611472 29.7341 0.00501238C27.4669 -0.0511224 25.2141 0.42656 23.1179 1.40791L18.6481 3.50354C16.7919 4.37278 14.7969 4.79598 12.7892 4.74641C10.7815 4.69685 8.80473 4.17559 6.98358 3.21556L4.17755 1.73405C3.46121 1.35689 2.7217 1.03917 1.96484 0.78338L1.96484 3.01086C2.4486 3.198 2.9233 3.41399 3.38697 3.65794L6.193 5.14119C8.24955 6.22526 10.4818 6.81393 12.749 6.87007C15.0162 6.9262 17.269 6.44857 19.3653 5.46733L23.832 3.36996C25.6884 2.50155 27.6832 2.0788 29.6908 2.12836C31.6984 2.17793 33.6751 2.69873 35.4965 3.65794L38.3025 5.14119C40.3591 6.22526 42.5914 6.81393 44.8585 6.87007C47.1257 6.9262 49.3785 6.44857 51.4748 5.46733L55.9445 3.36996C57.801 2.50155 59.7958 2.0788 61.8034 2.12836C63.811 2.17793 65.7877 2.69873 67.6091 3.65794L70.4151 5.14119C72.4716 6.22526 74.7039 6.81393 76.9711 6.87007C79.2383 6.9262 81.4911 6.44857 83.5874 5.46733L88.0571 3.36996C89.9135 2.50155 91.9084 2.0788 93.916 2.12836C95.9235 2.17793 97.9003 2.69873 99.7216 3.65794L102.528 5.14119C106.416 7.19065 110.857 7.43286 114.9 5.81603C115.169 5.70847 115.436 5.59281 115.7 5.46907L120.17 3.36996C122.026 2.50155 124.021 2.0788 126.029 2.12836C128.036 2.17793 130.013 2.69873 131.834 3.65794L134.64 5.14119C134.908 5.28344 135.177 5.41355 135.448 5.53846C135.533 5.57662 135.62 5.60958 135.708 5.64775C135.894 5.72929 136.081 5.80909 136.269 5.88195C136.374 5.92358 136.48 5.95828 136.585 5.99644C136.758 6.05716 136.929 6.12135 137.104 6.16992C137.217 6.20462 137.332 6.23585 137.445 6.26881C137.613 6.31912 137.78 6.36769 137.948 6.41106L138.304 6.49433C138.469 6.53076 138.636 6.56893 138.801 6.60189L139.167 6.66434C139.332 6.6921 139.497 6.71812 139.661 6.74067L140.034 6.78231C140.197 6.79965 140.361 6.81527 140.526 6.82741L140.902 6.84823C141.066 6.84823 141.229 6.86037 141.392 6.86211H141.555C141.636 6.86211 141.719 6.86211 141.8 6.86211C141.933 6.86211 142.064 6.86211 142.197 6.8517C142.33 6.84129 142.48 6.83609 142.622 6.82568C142.765 6.81527 142.886 6.80659 143.016 6.79272C143.145 6.77884 143.303 6.75976 143.445 6.74067C143.587 6.72159 143.704 6.70771 143.832 6.68689C143.961 6.66608 144.123 6.63658 144.268 6.60883C144.413 6.58107 144.519 6.56199 144.643 6.53597C144.795 6.50301 144.948 6.46484 145.089 6.42841C145.21 6.39718 145.329 6.36943 145.448 6.33646C145.601 6.29309 145.754 6.24452 145.907 6.19595C146.019 6.16125 146.13 6.13002 146.241 6.09186C146.413 6.03287 146.585 5.96869 146.756 5.90276C146.846 5.86807 146.938 5.83684 147.028 5.80041C147.289 5.69632 147.548 5.58356 147.806 5.46213L152.282 3.36996C152.516 3.26009 152.751 3.15774 152.989 3.0629C156.57 1.6329 160.502 1.84642 163.947 3.65794L166.753 5.14119C168.809 6.22526 171.042 6.81393 173.309 6.87007C175.576 6.9262 177.829 6.44857 179.925 5.46733L184.395 3.36996C186.251 2.50155 188.246 2.0788 190.254 2.12836C192.261 2.17793 194.238 2.69873 196.059 3.65794L198.865 5.14119C200.922 6.22526 203.154 6.81393 205.421 6.87007C207.689 6.9262 209.941 6.44857 212.038 5.46733L216.507 3.36996C218.364 2.50155 220.359 2.0788 222.366 2.12836C224.374 2.17793 226.351 2.69873 228.172 3.65794L230.978 5.14119C233.035 6.22526 235.267 6.81393 237.534 6.87007C239.801 6.9262 242.054 6.44857 244.15 5.46733L248.62 3.36996C250.476 2.50155 252.471 2.0788 254.479 2.12836C256.486 2.17793 258.463 2.69873 260.284 3.65794L263.091 5.14119C266.979 7.19065 271.419 7.43286 275.463 5.81603C275.732 5.70847 275.999 5.59281 276.263 5.46907L280.733 3.36996C282.589 2.50155 284.584 2.0788 286.591 2.12836C288.599 2.17793 290.576 2.69873 292.397 3.65794L295.203 5.14119C295.471 5.28344 295.74 5.41355 296.01 5.53846C296.096 5.57662 296.183 5.60958 296.27 5.64775C296.457 5.72929 296.644 5.80909 296.832 5.88195C296.937 5.92358 297.043 5.95828 297.148 5.99644C297.321 6.05716 297.492 6.12135 297.667 6.16992C297.78 6.20462 297.894 6.23585 298.008 6.26881C298.176 6.31912 298.342 6.36769 298.511 6.41106L298.867 6.49433C299.032 6.53076 299.199 6.56893 299.364 6.60189L299.729 6.66434C299.895 6.6921 300.06 6.71812 300.223 6.74067L300.596 6.78231C300.76 6.79965 300.924 6.81527 301.089 6.82741C301.214 6.83609 301.34 6.84129 301.465 6.84823C301.629 6.84823 301.792 6.86037 301.954 6.86211H302.118C302.199 6.86211 302.282 6.86211 302.363 6.86211C302.496 6.86211 302.627 6.86211 302.76 6.8517C302.893 6.84129 303.043 6.83609 303.185 6.82568C303.328 6.81527 303.448 6.80659 303.578 6.79272C303.708 6.77884 303.866 6.75976 304.008 6.74067C304.15 6.72159 304.266 6.70771 304.395 6.68689C304.523 6.66608 304.685 6.63658 304.831 6.60883C304.976 6.58107 305.082 6.56199 305.205 6.53597C305.358 6.50301 305.511 6.46484 305.652 6.42841C305.773 6.39718 305.892 6.36943 306.011 6.33646C306.164 6.29309 306.317 6.24452 306.47 6.19595C306.582 6.16125 306.693 6.13002 306.803 6.09186C306.976 6.03287 307.147 5.96869 307.319 5.90276C307.409 5.86807 307.501 5.83684 307.591 5.80041C307.853 5.69632 308.112 5.58356 308.369 5.46213L312.845 3.36996C313.08 3.26009 313.315 3.15774 313.552 3.0629C316.635 1.82877 319.994 1.81043 323.087 3.01086V0.785115C319.48 -0.444336 315.609 -0.224989 312.128 1.40617H312.131Z" fill="#F0E0FF"/>
</g>
<g clip-path="url(#clip1_2900_7257)">
<path d="M312.131 5.53117L307.661 7.62854C305.805 8.49874 303.811 8.92173 301.803 8.87066C299.794 8.82299 297.815 8.30194 295.992 7.34056L293.191 5.85905C291.134 4.77498 288.902 4.18631 286.635 4.13017C284.368 4.07404 282.115 4.55166 280.018 5.53291L275.549 7.62854C273.703 8.49388 271.719 8.91678 269.723 8.87066H269.689L269.476 8.86025C267.541 8.78207 265.639 8.26537 263.883 7.34056L261.078 5.85905C259.022 4.77488 256.789 4.18615 254.522 4.13001C252.255 4.07388 250.002 4.55156 247.906 5.53291L243.436 7.62854C241.58 8.49778 239.585 8.92098 237.577 8.87141C235.57 8.82185 233.593 8.30059 231.772 7.34056L228.966 5.85905C226.909 4.77488 224.677 4.18615 222.41 4.13001C220.142 4.07388 217.89 4.55156 215.793 5.53291L211.324 7.62854C209.467 8.49778 207.472 8.92098 205.465 8.87141C203.457 8.82185 201.48 8.30059 199.659 7.34056L196.853 5.85905C194.796 4.77488 192.564 4.18615 190.297 4.13001C188.03 4.07388 185.777 4.55156 183.681 5.53291L179.211 7.62854C177.355 8.49778 175.36 8.92098 173.352 8.87141C171.344 8.82185 169.368 8.30059 167.546 7.34056L164.74 5.85905C164.024 5.48189 163.285 5.16417 162.528 4.90838C158.92 3.67893 155.05 3.89828 151.568 5.52944L147.098 7.62854C145.243 8.49874 143.248 8.92173 141.24 8.87066C139.231 8.82299 137.252 8.30194 135.429 7.34056L132.628 5.85905C130.571 4.77498 128.339 4.18631 126.072 4.13017C123.805 4.07404 121.552 4.55166 119.456 5.53291L114.986 7.62854C113.14 8.49388 111.156 8.91678 109.16 8.87066H109.126L108.913 8.86025C106.978 8.78207 105.076 8.26537 103.32 7.34056L100.515 5.85905C98.4587 4.77488 96.2264 4.18615 93.9593 4.13001C91.6921 4.07388 89.4393 4.55156 87.343 5.53291L82.8732 7.62854C81.017 8.49778 79.0221 8.92098 77.0144 8.87141C75.0067 8.82185 73.0299 8.30059 71.2087 7.34056L68.4027 5.85905C66.3462 4.77488 64.1139 4.18615 61.8467 4.13001C59.5795 4.07388 57.3267 4.55156 55.2304 5.53291L50.7607 7.62854C48.9044 8.49778 46.9095 8.92098 44.9018 8.87141C42.8941 8.82185 40.9173 8.30059 39.0962 7.34056L36.2901 5.85905C34.2336 4.77488 32.0013 4.18615 29.7341 4.13001C27.4669 4.07388 25.2141 4.55156 23.1179 5.53291L18.6481 7.62854C16.7919 8.49778 14.7969 8.92098 12.7892 8.87141C10.7815 8.82185 8.80473 8.30059 6.98358 7.34056L4.17755 5.85905C3.46121 5.48189 2.7217 5.16417 1.96484 4.90838L1.96484 7.13586C2.4486 7.323 2.9233 7.53899 3.38697 7.78294L6.193 9.26619C8.24955 10.3503 10.4818 10.9389 12.749 10.9951C15.0162 11.0512 17.269 10.5736 19.3653 9.59233L23.832 7.49496C25.6884 6.62655 27.6832 6.2038 29.6908 6.25336C31.6984 6.30293 33.6751 6.82373 35.4965 7.78294L38.3025 9.26619C40.3591 10.3503 42.5914 10.9389 44.8585 10.9951C47.1257 11.0512 49.3785 10.5736 51.4748 9.59233L55.9445 7.49496C57.801 6.62655 59.7958 6.2038 61.8034 6.25336C63.811 6.30293 65.7877 6.82373 67.6091 7.78294L70.4151 9.26619C72.4716 10.3503 74.7039 10.9389 76.9711 10.9951C79.2383 11.0512 81.4911 10.5736 83.5874 9.59233L88.0571 7.49496C89.9135 6.62655 91.9084 6.2038 93.916 6.25336C95.9235 6.30293 97.9003 6.82373 99.7216 7.78294L102.528 9.26619C106.416 11.3156 110.857 11.5579 114.9 9.94103C115.169 9.83347 115.436 9.71781 115.7 9.59407L120.17 7.49496C122.026 6.62655 124.021 6.2038 126.029 6.25336C128.036 6.30293 130.013 6.82373 131.834 7.78294L134.64 9.26619C134.908 9.40844 135.177 9.53855 135.448 9.66346C135.533 9.70162 135.62 9.73458 135.708 9.77275C135.894 9.85429 136.081 9.93409 136.269 10.0069C136.374 10.0486 136.48 10.0833 136.585 10.1214C136.758 10.1822 136.929 10.2463 137.104 10.2949C137.217 10.3296 137.332 10.3608 137.445 10.3938C137.613 10.4441 137.78 10.4927 137.948 10.5361L138.304 10.6193C138.469 10.6558 138.636 10.6939 138.801 10.7269L139.167 10.7893C139.332 10.8171 139.497 10.8431 139.661 10.8657L140.034 10.9073C140.197 10.9247 140.361 10.9403 140.526 10.9524L140.902 10.9732C141.066 10.9732 141.229 10.9854 141.392 10.9871H141.555C141.636 10.9871 141.719 10.9871 141.8 10.9871C141.933 10.9871 142.064 10.9871 142.197 10.9767C142.33 10.9663 142.48 10.9611 142.622 10.9507C142.765 10.9403 142.886 10.9316 143.016 10.9177C143.145 10.9038 143.303 10.8848 143.445 10.8657C143.587 10.8466 143.704 10.8327 143.832 10.8119C143.961 10.7911 144.123 10.7616 144.268 10.7338C144.413 10.7061 144.519 10.687 144.643 10.661C144.795 10.628 144.948 10.5898 145.089 10.5534C145.21 10.5222 145.329 10.4944 145.448 10.4615C145.601 10.4181 145.754 10.3695 145.907 10.3209C146.019 10.2863 146.13 10.255 146.241 10.2169C146.413 10.1579 146.585 10.0937 146.756 10.0278C146.846 9.99307 146.938 9.96184 147.028 9.92541C147.289 9.82132 147.548 9.70856 147.806 9.58713L152.282 7.49496C152.516 7.38509 152.751 7.28274 152.989 7.1879C156.57 5.7579 160.502 5.97142 163.947 7.78294L166.753 9.26619C168.809 10.3503 171.042 10.9389 173.309 10.9951C175.576 11.0512 177.829 10.5736 179.925 9.59233L184.395 7.49496C186.251 6.62655 188.246 6.2038 190.254 6.25336C192.261 6.30293 194.238 6.82373 196.059 7.78294L198.865 9.26619C200.922 10.3503 203.154 10.9389 205.421 10.9951C207.689 11.0512 209.941 10.5736 212.038 9.59233L216.507 7.49496C218.364 6.62655 220.359 6.2038 222.366 6.25336C224.374 6.30293 226.351 6.82373 228.172 7.78294L230.978 9.26619C233.035 10.3503 235.267 10.9389 237.534 10.9951C239.801 11.0512 242.054 10.5736 244.15 9.59233L248.62 7.49496C250.476 6.62655 252.471 6.2038 254.479 6.25336C256.486 6.30293 258.463 6.82373 260.284 7.78294L263.091 9.26619C266.979 11.3156 271.419 11.5579 275.463 9.94103C275.732 9.83347 275.999 9.71781 276.263 9.59407L280.733 7.49496C282.589 6.62655 284.584 6.2038 286.591 6.25336C288.599 6.30293 290.576 6.82373 292.397 7.78294L295.203 9.26619C295.471 9.40844 295.74 9.53855 296.01 9.66346C296.096 9.70162 296.183 9.73458 296.27 9.77275C296.457 9.85429 296.644 9.93409 296.832 10.0069C296.937 10.0486 297.043 10.0833 297.148 10.1214C297.321 10.1822 297.492 10.2463 297.667 10.2949C297.78 10.3296 297.894 10.3608 298.008 10.3938C298.176 10.4441 298.342 10.4927 298.511 10.5361L298.867 10.6193C299.032 10.6558 299.199 10.6939 299.364 10.7269L299.729 10.7893C299.895 10.8171 300.06 10.8431 300.223 10.8657L300.596 10.9073C300.76 10.9247 300.924 10.9403 301.089 10.9524C301.214 10.9611 301.34 10.9663 301.465 10.9732C301.629 10.9732 301.792 10.9854 301.954 10.9871H302.118C302.199 10.9871 302.282 10.9871 302.363 10.9871C302.496 10.9871 302.627 10.9871 302.76 10.9767C302.893 10.9663 303.043 10.9611 303.185 10.9507C303.328 10.9403 303.448 10.9316 303.578 10.9177C303.708 10.9038 303.866 10.8848 304.008 10.8657C304.15 10.8466 304.266 10.8327 304.395 10.8119C304.523 10.7911 304.685 10.7616 304.831 10.7338C304.976 10.7061 305.082 10.687 305.205 10.661C305.358 10.628 305.511 10.5898 305.652 10.5534C305.773 10.5222 305.892 10.4944 306.011 10.4615C306.164 10.4181 306.317 10.3695 306.47 10.3209C306.582 10.2863 306.693 10.255 306.803 10.2169C306.976 10.1579 307.147 10.0937 307.319 10.0278C307.409 9.99307 307.501 9.96184 307.591 9.92541C307.853 9.82132 308.112 9.70856 308.369 9.58713L312.845 7.49496C313.08 7.38509 313.315 7.28274 313.552 7.1879C316.635 5.95377 319.994 5.93543 323.087 7.13586V4.91011C319.48 3.68066 315.609 3.90001 312.128 5.53117H312.131Z" fill="#F0E0FF"/>
</g>
<defs>
<clipPath id="clip0_2900_7257">
<rect width="328" height="6.875" fill="white"/>
</clipPath>
<clipPath id="clip1_2900_7257">
<rect width="328" height="6.875" fill="white" transform="translate(0 4.125)"/>
</clipPath>
</defs>
</svg>
