<svg width="32" height="12" viewBox="0 0 32 12" fill="none" xmlns="http://www.w3.org/2000/svg">
<path d="M0 0.00506612C2.25152 0.0641959 4.69124 0.644493 6.73548 1.73496L9.5134 3.21458C11.3285 4.1744 13.2828 4.69557 15.2765 4.74507C17.2703 4.79458 19.2436 4.37517 21.0888 3.50472L25.5223 1.40355C27.576 0.434101 29.788 -0.045813 32 0.00506612V2.12549C30.0158 2.08561 28.0615 2.51602 26.2273 3.36584L21.7938 5.46563C19.7209 6.44609 17.479 6.926 15.237 6.86549C12.9855 6.81599 10.7735 6.22469 8.72926 5.14523L5.94179 3.65461C4.1362 2.69478 2.18197 2.17499 0.188195 2.12549H0V0.00506612ZM25.5223 5.53576L21.0888 7.62593C19.2436 8.49638 17.2703 8.92679 15.2765 8.87591C13.2828 8.8264 11.3285 8.29561 9.5134 7.33578L6.73548 5.85616C4.69261 4.77533 2.48063 4.1854 0.227743 4.12627H0V6.25632H0.188195C2.18197 6.30582 4.1362 6.82699 5.94179 7.78682L8.72926 9.26644C10.7721 10.3473 12.9841 10.9372 15.237 10.9963C17.479 11.0568 19.7209 10.5755 21.7938 9.59647L26.2273 7.49667C28.0629 6.63585 30.0171 6.21644 32 6.25632V4.12627C29.788 4.0864 27.576 4.56631 25.5223 5.53714V5.53576Z" fill="#F0E0FF"/>
</svg>
