<svg width="39" height="11" viewBox="0 0 39 11" fill="none" xmlns="http://www.w3.org/2000/svg">
<path d="M39 10.9998V7.384C38.0148 7.384 37.0296 7.05129 35.9441 6.56598C31.9125 4.75808 27.9406 2.78933 23.9402 0.900321C22.955 0.435629 21.9589 0.0218058 20.7948 0.00118351C19.5007 -0.0290623 18.426 0.526368 17.3216 0.960814C12.2438 2.95156 7.16741 4.92031 2.12082 6.94956C1.39445 7.2424 0.697905 7.384 0 7.384V10.9998C0.895757 10.9888 1.77119 10.8183 2.67779 10.4237C7.64443 8.23227 12.8211 6.445 17.8271 4.35526C19.6186 3.60735 21.1418 3.55786 22.8831 4.40613C26.8551 6.32539 30.9355 8.07142 34.9169 10.0113C36.2816 10.6767 37.6354 11.0094 39 10.9998Z" fill="#F0E0FF"/>
</svg>
