<svg width="328" height="11" viewBox="0 0 328 11" fill="none" xmlns="http://www.w3.org/2000/svg">
<g clip-path="url(#clip0_2900_7254)">
<path d="M43.8318 10.9997C42.5312 11.0256 41.4585 10.4807 40.3411 10.0486C35.2485 8.07851 30.1438 6.12941 25.0729 4.12142C23.6313 3.55056 22.3163 3.56054 20.8771 4.09547C15.9544 5.92581 11.0041 7.70625 6.06814 9.51364C5.04239 9.88889 4.04435 10.4408 2.86311 10.1324C1.71682 9.833 0.101651 9.69827 0.00281191 8.54258C-0.0743306 7.63639 1.45405 7.56853 2.33878 7.23619C7.97259 5.12441 13.6522 3.09148 19.2402 0.902858C21.4171 0.0505623 23.3493 -0.267801 25.6358 0.677309C30.6645 2.75515 35.821 4.62142 40.857 6.68829C42.6554 7.42581 44.1825 7.47571 45.9303 6.64338C49.926 4.74118 54.0013 2.95376 58.0224 1.08749C60.6754 -0.144049 63.1608 -0.225885 65.9861 0.995672C70.6665 3.02062 75.588 4.66633 80.319 6.61543C82.1632 7.37491 83.694 7.39188 85.3236 6.40386C89.5327 3.85296 94.6181 2.65436 99.0248 0.409844C100.639 -0.411514 102.008 0.165333 103.473 0.717229C108.484 2.60645 113.553 4.39587 118.536 6.33499C120.708 7.1803 122.513 6.8799 124.611 6.07352C128.801 4.46074 132.835 2.6334 136.805 0.702259C138.505 -0.124088 140.106 -0.135067 141.944 0.443776C149.51 2.82501 157.124 5.10046 164.698 7.46374C165.605 7.74617 167.441 7.54757 166.974 8.90785C166.574 10.0765 165.07 10.334 163.587 10.1573C160.194 9.75216 157.16 8.46274 154.011 7.48469C150.221 6.30705 146.463 5.07751 142.605 4.04158C140.713 3.5336 139.188 3.62142 137.484 4.39088C133.14 6.35096 128.69 8.15336 124.364 10.1384C122.378 11.0496 120.636 11.0166 118.627 10.2082C113.57 8.17332 108.404 6.32002 103.356 4.26913C101.648 3.57551 100.275 3.59847 98.6246 4.35196C94.3914 6.28509 90.0401 8.04258 85.7997 9.96374C83.8687 10.839 82.1909 10.9358 80.0936 10.1454C74.7756 8.14138 69.2551 6.49567 64.1166 4.16833C62.2664 3.331 60.6995 3.71723 59.0506 4.49567C55.0476 6.38689 51.0157 8.23919 46.9958 10.1065C46.0087 10.5645 45.0034 10.9817 43.8318 10.9977V10.9997Z" fill="#F0E0FF"/>
<path d="M204.784 10.9997C203.483 11.0256 202.41 10.4807 201.293 10.0486C196.2 8.07851 191.096 6.12941 186.025 4.12142C184.583 3.55056 183.268 3.56054 181.829 4.09547C176.906 5.92581 171.956 7.70625 167.02 9.51364C165.994 9.88889 164.996 10.4408 163.815 10.1324C162.67 9.833 161.055 9.69827 160.956 8.54258C160.879 7.63639 162.407 7.56853 163.292 7.23619C168.926 5.12441 174.604 3.09148 180.192 0.902858C182.369 0.0505623 184.301 -0.267801 186.588 0.677309C191.616 2.75515 196.773 4.62142 201.809 6.68829C203.607 7.42581 205.134 7.47571 206.882 6.64338C210.878 4.74118 214.953 2.95376 218.974 1.08749C221.627 -0.144049 224.113 -0.225885 226.938 0.995672C231.618 3.02062 236.54 4.66633 241.271 6.61543C243.115 7.37491 244.646 7.39188 246.275 6.40386C250.485 3.85296 255.57 2.65436 259.977 0.409844C261.591 -0.411514 262.96 0.165333 264.424 0.717229C269.436 2.60645 274.505 4.39587 279.488 6.33499C281.66 7.1803 283.465 6.8799 285.563 6.07352C289.752 4.46074 293.787 2.6334 297.757 0.702259C299.457 -0.124088 301.057 -0.135067 302.896 0.443776C310.462 2.82501 318.076 5.10046 325.65 7.46374C326.557 7.74617 328.392 7.54757 327.926 8.90785C327.526 10.0765 326.021 10.334 324.539 10.1573C321.146 9.75216 318.112 8.46274 314.962 7.48469C311.173 6.30705 307.414 5.07751 303.557 4.04158C301.665 3.5336 300.14 3.62142 298.436 4.39088C294.092 6.35096 289.642 8.15336 285.316 10.1384C283.33 11.0496 281.587 11.0166 279.579 10.2082C274.522 8.17332 269.355 6.32002 264.307 4.26913C262.599 3.57551 261.227 3.59847 259.576 4.35196C255.343 6.28509 250.992 8.04258 246.752 9.96374C244.821 10.839 243.143 10.9358 241.045 10.1454C235.727 8.14138 230.207 6.49567 225.068 4.16833C223.218 3.331 221.651 3.71723 220.002 4.49567C215.999 6.38689 211.968 8.23919 207.948 10.1065C206.961 10.5645 205.955 10.9817 204.784 10.9977V10.9997Z" fill="#F0E0FF"/>
</g>
<defs>
<clipPath id="clip0_2900_7254">
<rect width="328" height="11" fill="white"/>
</clipPath>
</defs>
</svg>
